<mxfile host="Electron" agent="Mozilla/5.0 (X11; Linux x86_64) AppleWebKit/537.36 (KHTML, like Gecko) draw.io/27.0.5 Chrome/134.0.6998.205 Electron/35.3.0 Safari/537.36" version="27.0.5">
  <diagram name="Seite-1" id="QquXzEkQtlTWjC9Vbpel">
    <mxGraphModel dx="1426" dy="777" grid="1" gridSize="10" guides="1" tooltips="1" connect="1" arrows="1" fold="1" page="1" pageScale="1" pageWidth="827" pageHeight="1169" math="0" shadow="0">
      <root>
        <mxCell id="0" />
        <mxCell id="1" parent="0" />
        <mxCell id="2Lmh_uIR2C7QUi7_RL__-41" value="" style="rounded=0;whiteSpace=wrap;html=1;verticalAlign=bottom;fillColor=none;" parent="1" vertex="1">
          <mxGeometry x="180" y="310" width="580" height="420" as="geometry" />
        </mxCell>
        <mxCell id="2Lmh_uIR2C7QUi7_RL__-33" style="edgeStyle=orthogonalEdgeStyle;rounded=0;orthogonalLoop=1;jettySize=auto;html=1;" parent="1" target="2Lmh_uIR2C7QUi7_RL__-3" edge="1">
          <mxGeometry relative="1" as="geometry">
            <mxPoint x="399.9999999999999" y="395" as="sourcePoint" />
            <mxPoint x="186.99999999999994" y="445" as="targetPoint" />
            <Array as="points">
              <mxPoint x="400" y="420" />
              <mxPoint x="280" y="420" />
            </Array>
          </mxGeometry>
        </mxCell>
        <mxCell id="6G03d2P2Zu0Plv2k2XHP-11" style="edgeStyle=orthogonalEdgeStyle;rounded=0;orthogonalLoop=1;jettySize=auto;html=1;entryX=0;entryY=0.5;entryDx=0;entryDy=0;" parent="1" source="2Lmh_uIR2C7QUi7_RL__-1" target="6G03d2P2Zu0Plv2k2XHP-3" edge="1">
          <mxGeometry relative="1" as="geometry" />
        </mxCell>
        <mxCell id="4U25licDrchRU1x1E-tZ-1" style="edgeStyle=orthogonalEdgeStyle;rounded=0;orthogonalLoop=1;jettySize=auto;html=1;entryX=0.5;entryY=0;entryDx=0;entryDy=0;" parent="1" source="2Lmh_uIR2C7QUi7_RL__-1" target="2Lmh_uIR2C7QUi7_RL__-16" edge="1">
          <mxGeometry relative="1" as="geometry">
            <Array as="points">
              <mxPoint x="400" y="420" />
              <mxPoint x="518" y="420" />
            </Array>
          </mxGeometry>
        </mxCell>
        <mxCell id="2Lmh_uIR2C7QUi7_RL__-1" value="Ocelot-Cloud&lt;div&gt;Proxy&lt;/div&gt;" style="rounded=0;whiteSpace=wrap;html=1;fillColor=#dae8fc;strokeColor=#6c8ebf;fontColor=#000000;" parent="1" vertex="1">
          <mxGeometry x="340" y="330" width="120" height="60" as="geometry" />
        </mxCell>
        <mxCell id="2Lmh_uIR2C7QUi7_RL__-34" value="" style="edgeStyle=orthogonalEdgeStyle;rounded=0;orthogonalLoop=1;jettySize=auto;html=1;" parent="1" source="2Lmh_uIR2C7QUi7_RL__-2" target="2Lmh_uIR2C7QUi7_RL__-1" edge="1">
          <mxGeometry relative="1" as="geometry" />
        </mxCell>
        <mxCell id="2Lmh_uIR2C7QUi7_RL__-2" value="HTTPS request&lt;div&gt;from a user&lt;/div&gt;&lt;div&gt;via browser&lt;/div&gt;" style="rounded=0;whiteSpace=wrap;html=1;fillColor=#f8cecc;strokeColor=#b85450;fontColor=#000000;" parent="1" vertex="1">
          <mxGeometry x="339.99" y="230" width="120" height="60" as="geometry" />
        </mxCell>
        <mxCell id="2Lmh_uIR2C7QUi7_RL__-42" value="&lt;b&gt;https://ocelot-cloud.my-domain.org&lt;/b&gt;" style="text;html=1;align=center;verticalAlign=middle;whiteSpace=wrap;rounded=0;" parent="1" vertex="1">
          <mxGeometry x="470" y="324" width="136.25" height="30" as="geometry" />
        </mxCell>
        <mxCell id="6G03d2P2Zu0Plv2k2XHP-1" value="&lt;b&gt;https://app1.my-domain.org&lt;/b&gt;" style="text;html=1;align=center;verticalAlign=middle;whiteSpace=wrap;rounded=0;" parent="1" vertex="1">
          <mxGeometry x="208" y="393" width="181.25" height="30" as="geometry" />
        </mxCell>
        <mxCell id="6G03d2P2Zu0Plv2k2XHP-2" value="&lt;b&gt;https://app2.my-domain.org&lt;/b&gt;" style="text;html=1;align=center;verticalAlign=middle;whiteSpace=wrap;rounded=0;" parent="1" vertex="1">
          <mxGeometry x="415.25" y="394" width="180" height="30" as="geometry" />
        </mxCell>
        <mxCell id="6G03d2P2Zu0Plv2k2XHP-3" value="Ocelot-Cloud&lt;div&gt;GUI / Backend&lt;/div&gt;" style="rounded=0;whiteSpace=wrap;html=1;fillColor=#dae8fc;strokeColor=#6c8ebf;fontColor=#000000;" parent="1" vertex="1">
          <mxGeometry x="618.13" y="330" width="120" height="60" as="geometry" />
        </mxCell>
        <mxCell id="6G03d2P2Zu0Plv2k2XHP-7" value="" style="group;fontColor=#000000;" parent="1" vertex="1" connectable="0">
          <mxGeometry x="440" y="445.5" width="155" height="229.5" as="geometry" />
        </mxCell>
        <mxCell id="2Lmh_uIR2C7QUi7_RL__-16" value="&lt;font style=&quot;color: rgb(0, 0, 0);&quot;&gt;Docker Network 2&lt;/font&gt;" style="rounded=0;whiteSpace=wrap;html=1;verticalAlign=top;fillColor=#e1d5e7;strokeColor=#9673a6;" parent="6G03d2P2Zu0Plv2k2XHP-7" vertex="1">
          <mxGeometry width="155" height="179" as="geometry" />
        </mxCell>
        <mxCell id="2Lmh_uIR2C7QUi7_RL__-17" value="Web Server 2" style="rounded=0;whiteSpace=wrap;html=1;fillColor=#d5e8d4;strokeColor=#82b366;fontColor=#0B0B0B;" parent="6G03d2P2Zu0Plv2k2XHP-7" vertex="1">
          <mxGeometry x="17.5" y="30" width="120" height="60" as="geometry" />
        </mxCell>
        <mxCell id="2Lmh_uIR2C7QUi7_RL__-18" value="Database&lt;span style=&quot;background-color: initial;&quot;&gt;&amp;nbsp;2&lt;/span&gt;" style="rounded=0;whiteSpace=wrap;html=1;fillColor=#d5e8d4;strokeColor=#82b366;fontColor=#0B0B0B;" parent="6G03d2P2Zu0Plv2k2XHP-7" vertex="1">
          <mxGeometry x="17.5" y="104.5" width="120" height="60" as="geometry" />
        </mxCell>
        <mxCell id="2Lmh_uIR2C7QUi7_RL__-19" value="Docker Volume 2" style="rounded=0;whiteSpace=wrap;html=1;fillColor=#ffe6cc;strokeColor=#d79b00;fontColor=#0B0B0B;" parent="6G03d2P2Zu0Plv2k2XHP-7" vertex="1">
          <mxGeometry y="179" width="155" height="50.5" as="geometry" />
        </mxCell>
        <mxCell id="6G03d2P2Zu0Plv2k2XHP-8" value="" style="group;fontColor=#000000;" parent="1" vertex="1" connectable="0">
          <mxGeometry x="208" y="445" width="155" height="230" as="geometry" />
        </mxCell>
        <mxCell id="2Lmh_uIR2C7QUi7_RL__-3" value="Docker Network 1" style="rounded=0;whiteSpace=wrap;html=1;verticalAlign=top;fillColor=#e1d5e7;strokeColor=#9673a6;fontColor=#000000;" parent="6G03d2P2Zu0Plv2k2XHP-8" vertex="1">
          <mxGeometry width="155" height="179" as="geometry" />
        </mxCell>
        <mxCell id="2Lmh_uIR2C7QUi7_RL__-5" value="Web Server 1" style="rounded=0;whiteSpace=wrap;html=1;fillColor=#d5e8d4;strokeColor=#82b366;fontColor=#000000;" parent="6G03d2P2Zu0Plv2k2XHP-8" vertex="1">
          <mxGeometry x="17.5" y="30" width="120" height="60" as="geometry" />
        </mxCell>
        <mxCell id="2Lmh_uIR2C7QUi7_RL__-10" value="Database&lt;span style=&quot;background-color: initial;&quot;&gt;&amp;nbsp;1&lt;/span&gt;" style="rounded=0;whiteSpace=wrap;html=1;fillColor=#d5e8d4;strokeColor=#82b366;fontColor=#000000;" parent="6G03d2P2Zu0Plv2k2XHP-8" vertex="1">
          <mxGeometry x="17.5" y="105" width="120" height="60" as="geometry" />
        </mxCell>
        <mxCell id="2Lmh_uIR2C7QUi7_RL__-14" value="Docker Volume 1" style="rounded=0;whiteSpace=wrap;html=1;fillColor=#ffe6cc;strokeColor=#d79b00;fontColor=#000000;" parent="6G03d2P2Zu0Plv2k2XHP-8" vertex="1">
          <mxGeometry y="179" width="155" height="51" as="geometry" />
        </mxCell>
        <mxCell id="6G03d2P2Zu0Plv2k2XHP-12" value="&lt;font style=&quot;font-size: 16px;&quot;&gt;&lt;b&gt;Server with Ocelot-Cloud installed&lt;/b&gt;&lt;/font&gt;" style="text;html=1;align=center;verticalAlign=middle;whiteSpace=wrap;rounded=0;" parent="1" vertex="1">
          <mxGeometry x="339.99" y="690" width="290" height="30" as="geometry" />
        </mxCell>
      </root>
    </mxGraphModel>
  </diagram>
</mxfile>
